<svg width="14" height="14" viewBox="0 0 14 14" fill="none" xmlns="http://www.w3.org/2000/svg">
<path d="M3.67091 2.50429C3.7803 2.39493 3.92865 2.3335 4.08333 2.3335C4.23801 2.3335 4.38635 2.39493 4.49574 2.50429L6.82908 4.83762C6.93534 4.94764 6.99413 5.09499 6.9928 5.24794C6.99147 5.40089 6.93013 5.5472 6.82197 5.65535C6.71382 5.76351 6.56751 5.82485 6.41456 5.82618C6.26161 5.82751 6.11426 5.76872 6.00424 5.66246L4.66666 4.32487V11.0834C4.66666 11.2381 4.6052 11.3865 4.49581 11.4959C4.38641 11.6052 4.23804 11.6667 4.08333 11.6667C3.92862 11.6667 3.78024 11.6052 3.67085 11.4959C3.56145 11.3865 3.49999 11.2381 3.49999 11.0834V4.32487L2.16241 5.66246C2.05239 5.76872 1.90504 5.82751 1.75209 5.82618C1.59914 5.82485 1.45284 5.76351 1.34468 5.65535C1.23653 5.5472 1.17518 5.40089 1.17385 5.24794C1.17252 5.09499 1.23132 4.94764 1.33758 4.83762L3.67091 2.50429ZM9.33333 9.67521V2.91671C9.33333 2.762 9.39478 2.61362 9.50418 2.50423C9.61358 2.39483 9.76195 2.33337 9.91666 2.33337C10.0714 2.33337 10.2197 2.39483 10.3291 2.50423C10.4385 2.61362 10.5 2.762 10.5 2.91671V9.67521L11.8376 8.33762C11.9476 8.23137 12.0949 8.17257 12.2479 8.1739C12.4008 8.17523 12.5471 8.23658 12.6553 8.34473C12.7635 8.45288 12.8248 8.59919 12.8261 8.75214C12.8275 8.90509 12.7687 9.05244 12.6624 9.16246L10.3291 11.4958C10.2197 11.6051 10.0713 11.6666 9.91666 11.6666C9.76198 11.6666 9.61363 11.6051 9.50424 11.4958L7.17091 9.16246C7.06465 9.05244 7.00585 8.90509 7.00718 8.75214C7.00851 8.59919 7.06986 8.45288 7.17802 8.34473C7.28617 8.23658 7.43248 8.17523 7.58543 8.1739C7.73837 8.17257 7.88573 8.23137 7.99574 8.33762L9.33333 9.67521Z" fill="#8B95A1"/>
</svg>
