<svg width="1928" height="1088" viewBox="0 0 1928 1088" fill="none" xmlns="http://www.w3.org/2000/svg">
<g clip-path="url(#clip0_2808_1753)">
<rect width="1928" height="1088" fill="#3E5D8E"/>
<path d="M563.906 1032.51C554.842 1004.73 524.098 985.701 495.343 990.066C464.099 994.809 440.489 1024.4 442.593 1056.12C443.386 1068.39 448.981 1079.26 458.244 1086.69C467.426 1094.13 479.233 1097.21 491.281 1095.39L528.87 1089.68C542.444 1087.62 553.523 1080.49 560.177 1069.65C566.832 1058.81 568.109 1045.57 563.906 1032.51Z" fill="white" fill-opacity="0.06"/>
<path d="M483.588 979.792C496.586 977.82 505.515 965.632 503.532 952.571C501.549 939.51 489.406 930.522 476.409 932.495C463.411 934.468 454.482 946.655 456.465 959.716C458.447 972.777 470.591 981.765 483.588 979.792Z" fill="white" fill-opacity="0.06"/>
<path d="M538.516 981.103C549.34 979.46 556.776 969.311 555.125 958.434C553.474 947.557 543.361 940.072 532.537 941.715C521.714 943.358 514.278 953.507 515.929 964.384C517.58 975.261 527.692 982.746 538.516 981.103Z" fill="white" fill-opacity="0.06"/>
<path d="M572.291 1008.2C580.941 1006.89 586.883 998.778 585.564 990.085C584.244 981.393 576.163 975.411 567.512 976.724C558.863 978.037 552.92 986.148 554.239 994.84C555.559 1003.53 563.641 1009.52 572.291 1008.2Z" fill="white" fill-opacity="0.06"/>
<path d="M436.494 1012.72C447.318 1011.07 454.754 1000.92 453.103 990.048C451.452 979.171 441.339 971.686 430.515 973.329C419.692 974.972 412.256 985.121 413.907 995.998C415.558 1006.87 425.671 1014.36 436.494 1012.72Z" fill="white" fill-opacity="0.06"/>
<path d="M214.875 862.912C191.373 845.56 155.291 847.911 134.411 868.157C111.724 890.156 109.679 927.959 129.804 952.566C137.571 962.092 148.44 967.7 160.295 968.373C172.092 969.101 183.493 964.755 192.242 956.272L219.537 929.805C229.393 920.247 234.274 908.009 233.402 895.323C232.53 882.637 225.884 871.114 214.875 862.912Z" fill="white" fill-opacity="0.06"/>
<path d="M118.876 866.614C128.314 857.463 128.509 842.356 119.313 832.872C110.117 823.388 95.0108 823.118 85.573 832.27C76.1352 841.421 75.9395 856.528 85.1358 866.012C94.3321 875.496 109.438 875.766 118.876 866.614Z" fill="white" fill-opacity="0.06"/>
<path d="M164.361 835.796C172.221 828.175 172.384 815.595 164.725 807.697C157.067 799.799 144.487 799.574 136.628 807.195C128.768 814.816 128.605 827.397 136.264 835.295C143.922 843.193 156.502 843.417 164.361 835.796Z" fill="white" fill-opacity="0.06"/>
<path d="M207.595 838.256C213.876 832.165 214.005 822.111 207.885 815.799C201.765 809.487 191.711 809.308 185.43 815.398C179.149 821.488 179.019 831.543 185.139 837.855C191.26 844.167 201.314 844.346 207.595 838.256Z" fill="white" fill-opacity="0.06"/>
<path d="M99.6426 920.764C107.502 913.143 107.665 900.562 100.007 892.664C92.3482 884.766 79.7685 884.541 71.909 892.162C64.0496 899.783 63.8866 912.364 71.5449 920.262C79.2034 928.16 91.7832 928.385 99.6426 920.764Z" fill="white" fill-opacity="0.06"/>
<path d="M371.77 584.568C353.56 561.724 318.099 554.656 292.691 568.808C265.082 584.186 253.323 620.172 266.394 649.149C271.431 660.361 280.478 668.591 291.755 672.308C302.961 676.066 315.099 674.818 325.745 668.888L358.96 650.388C370.955 643.707 378.837 633.149 381.278 620.669C383.719 608.19 380.281 595.34 371.77 584.568Z" fill="white" fill-opacity="0.06"/>
<path d="M278.084 563.297C289.569 556.9 293.668 542.359 287.24 530.818C280.811 519.276 266.29 515.106 254.805 521.503C243.32 527.9 239.221 542.442 245.65 553.983C252.078 565.524 266.599 569.694 278.084 563.297Z" fill="white" fill-opacity="0.06"/>
<path d="M329.996 545.302C339.56 539.975 342.974 527.865 337.621 518.254C332.267 508.643 320.175 505.17 310.61 510.497C301.046 515.825 297.633 527.934 302.986 537.545C308.339 547.156 320.432 550.629 329.996 545.302Z" fill="white" fill-opacity="0.06"/>
<path d="M371.12 558.867C378.764 554.61 381.491 544.932 377.213 537.25C372.935 529.57 363.271 526.794 355.627 531.052C347.984 535.309 345.255 544.987 349.533 552.667C353.812 560.349 363.477 563.124 371.12 558.867Z" fill="white" fill-opacity="0.06"/>
<path d="M245.489 610.622C255.054 605.295 258.467 593.185 253.114 583.574C247.761 573.963 235.668 570.49 226.103 575.817C216.539 581.144 213.126 593.254 218.479 602.865C223.832 612.476 235.925 615.949 245.489 610.622Z" fill="white" fill-opacity="0.06"/>
<path d="M47.6459 380.969C20.4533 370.291 -13.7906 381.9 -28.7187 406.86C-44.9394 433.982 -37.1304 471.026 -11.3219 489.585C-1.35452 496.777 10.596 499.381 22.2209 496.962C33.8042 494.613 43.6923 487.464 49.9471 477.005L69.462 444.376C76.5091 432.593 78.0563 419.508 73.9303 407.48C69.8043 395.452 60.4023 386.042 47.6459 380.969Z" fill="white" fill-opacity="0.06"/>
<path d="M-8.16345 367.852C-2.54416 358.456 -5.643 346.262 -15.0844 340.615C-24.5261 334.969 -36.7351 338.007 -42.3544 347.403C-47.9737 356.799 -44.875 368.993 -35.4333 374.639C-25.9919 380.286 -13.7828 377.247 -8.16345 367.852Z" fill="white" fill-opacity="0.06"/>
<path d="M34.2318 359.038C38.7228 351.529 36.2457 341.784 28.6999 337.271C21.1546 332.758 11.3975 335.187 6.90661 342.696C2.41617 350.204 4.89219 359.95 12.4374 364.462C19.9833 368.975 29.7414 366.546 34.2318 359.038Z" fill="white" fill-opacity="0.06"/>
<path d="M2016.31 752.51C2007.25 724.738 1976.5 705.706 1947.75 710.071C1916.51 714.814 1892.9 744.408 1895 776.127C1895.79 788.392 1901.39 799.268 1910.65 806.698C1919.83 814.139 1931.64 817.219 1943.69 815.39L1981.28 809.684C1994.85 807.624 2005.93 800.492 2012.58 789.656C2019.24 778.819 2020.52 765.579 2016.31 752.51Z" fill="white" fill-opacity="0.06"/>
<path d="M1935.99 699.797C1948.99 697.824 1957.92 685.637 1955.94 672.576C1953.96 659.515 1941.81 650.527 1928.82 652.499C1915.82 654.472 1906.89 666.66 1908.87 679.721C1910.85 692.782 1923 701.77 1935.99 699.797Z" fill="white" fill-opacity="0.06"/>
<path d="M1888.9 732.722C1899.72 731.079 1907.16 720.93 1905.51 710.053C1903.86 699.176 1893.75 691.691 1882.92 693.334C1872.1 694.977 1864.66 705.126 1866.31 716.003C1867.96 726.88 1878.08 734.365 1888.9 732.722Z" fill="white" fill-opacity="0.06"/>
<path d="M1667.28 582.917C1643.78 565.565 1607.7 567.916 1586.82 588.162C1564.13 610.161 1562.09 647.964 1582.21 672.571C1589.98 682.097 1600.85 687.705 1612.7 688.377C1624.5 689.106 1635.9 684.76 1644.65 676.277L1671.94 649.81C1681.8 640.252 1686.68 628.014 1685.81 615.328C1684.94 602.642 1678.29 591.119 1667.28 582.917Z" fill="white" fill-opacity="0.06"/>
<path d="M1571.28 586.619C1580.72 577.468 1580.92 562.361 1571.72 552.877C1562.52 543.393 1547.42 543.123 1537.98 552.275C1528.54 561.426 1528.35 576.533 1537.54 586.017C1546.74 595.501 1561.84 595.771 1571.28 586.619Z" fill="white" fill-opacity="0.06"/>
<path d="M1616.77 555.801C1624.63 548.18 1624.79 535.599 1617.13 527.702C1609.47 519.803 1596.89 519.579 1589.03 527.2C1581.17 534.821 1581.01 547.402 1588.67 555.3C1596.33 563.198 1608.91 563.422 1616.77 555.801Z" fill="white" fill-opacity="0.06"/>
<path d="M1660 558.261C1666.28 552.17 1666.41 542.116 1660.29 535.804C1654.17 529.492 1644.12 529.312 1637.84 535.403C1631.56 541.493 1631.43 551.548 1637.55 557.86C1643.67 564.172 1653.72 564.351 1660 558.261Z" fill="white" fill-opacity="0.06"/>
<path d="M1552.05 640.769C1559.91 633.148 1560.07 620.567 1552.41 612.669C1544.75 604.771 1532.18 604.546 1524.32 612.167C1516.46 619.788 1516.29 632.369 1523.95 640.267C1531.61 648.165 1544.19 648.39 1552.05 640.769Z" fill="white" fill-opacity="0.06"/>
<path d="M1824.18 304.573C1805.97 281.729 1770.51 274.661 1745.1 288.813C1717.49 304.191 1705.73 340.177 1718.8 369.153C1723.84 380.365 1732.88 388.595 1744.16 392.313C1755.37 396.07 1767.51 394.823 1778.15 388.893L1811.37 370.393C1823.36 363.712 1831.24 353.154 1833.68 340.674C1836.13 328.194 1832.69 315.345 1824.18 304.573Z" fill="white" fill-opacity="0.06"/>
<path d="M1730.49 283.302C1741.98 276.905 1746.07 262.364 1739.65 250.822C1733.22 239.281 1718.7 235.111 1707.21 241.508C1695.73 247.905 1691.63 262.447 1698.06 273.988C1704.48 285.529 1719.01 289.699 1730.49 283.302Z" fill="white" fill-opacity="0.06"/>
<path d="M1782.4 265.307C1791.97 259.98 1795.38 247.87 1790.03 238.259C1784.67 228.648 1772.58 225.175 1763.02 230.502C1753.45 235.83 1750.04 247.939 1755.39 257.55C1760.75 267.161 1772.84 270.634 1782.4 265.307Z" fill="white" fill-opacity="0.06"/>
<path d="M1823.53 278.872C1831.17 274.615 1833.9 264.936 1829.62 257.255C1825.34 249.575 1815.68 246.799 1808.03 251.057C1800.39 255.314 1797.66 264.992 1801.94 272.672C1806.22 280.354 1815.88 283.129 1823.53 278.872Z" fill="white" fill-opacity="0.06"/>
<path d="M1697.9 330.627C1707.46 325.3 1710.87 313.19 1705.52 303.579C1700.17 293.968 1688.07 290.495 1678.51 295.822C1668.95 301.149 1665.53 313.259 1670.89 322.87C1676.24 332.481 1688.33 335.954 1697.9 330.627Z" fill="white" fill-opacity="0.06"/>
<path d="M1500.05 100.974C1472.86 90.2956 1438.62 101.905 1423.69 126.865C1407.47 153.987 1415.28 191.031 1441.08 209.59C1451.05 216.782 1463 219.386 1474.63 216.967C1486.21 214.618 1496.1 207.469 1502.35 197.01L1521.87 164.381C1528.92 152.598 1530.46 139.513 1526.34 127.485C1522.21 115.457 1512.81 106.047 1500.05 100.974Z" fill="white" fill-opacity="0.06"/>
<path d="M1408.28 129.398C1415.03 118.116 1411.31 103.473 1399.97 96.6923C1388.63 89.9115 1373.97 93.5608 1367.23 104.843C1360.48 116.125 1364.2 130.768 1375.54 137.549C1386.87 144.33 1401.54 140.681 1408.28 129.398Z" fill="white" fill-opacity="0.06"/>
<path d="M1444.24 87.8565C1449.86 78.4609 1446.76 66.2668 1437.32 60.6202C1427.88 54.9734 1415.67 58.0122 1410.05 67.4079C1404.43 76.8035 1407.53 88.9975 1416.97 94.6443C1426.41 100.291 1438.62 97.2522 1444.24 87.8565Z" fill="white" fill-opacity="0.06"/>
<path d="M1486.64 79.0432C1491.13 71.5342 1488.65 61.7889 1481.11 57.2759C1473.56 52.7633 1463.8 55.1917 1459.31 62.7007C1454.82 70.2089 1457.3 79.9547 1464.84 84.4673C1472.39 88.9802 1482.15 86.5514 1486.64 79.0432Z" fill="white" fill-opacity="0.06"/>
<path d="M1403.72 186.678C1409.34 177.282 1406.24 165.088 1396.8 159.441C1387.36 153.795 1375.15 156.834 1369.53 166.229C1363.91 175.625 1367.01 187.819 1376.45 193.466C1385.89 199.112 1398.1 196.073 1403.72 186.678Z" fill="white" fill-opacity="0.06"/>
</g>
<defs>
<clipPath id="clip0_2808_1753">
<rect width="1928" height="1088" fill="white"/>
</clipPath>
</defs>
</svg>
