<svg width="36" height="36" viewBox="0 0 36 36" fill="none" xmlns="http://www.w3.org/2000/svg">
<g id="Camera alt" clip-path="url(#clip0_2082_6861)">
<path id="Vector" d="M18.0001 22.7064C20.5991 22.7064 22.706 20.5995 22.706 18.0006C22.706 15.4016 20.5991 13.2947 18.0001 13.2947C15.4011 13.2947 13.2942 15.4016 13.2942 18.0006C13.2942 20.5995 15.4011 22.7064 18.0001 22.7064Z" fill="#3E4753"/>
<path id="Vector_2" d="M13.5883 3.29468L10.8971 6.23585H6.23537C4.61772 6.23585 3.29419 7.55938 3.29419 9.17703V26.8241C3.29419 28.4417 4.61772 29.7653 6.23537 29.7653H29.7648C31.3824 29.7653 32.706 28.4417 32.706 26.8241V9.17703C32.706 7.55938 31.3824 6.23585 29.7648 6.23585H25.103L22.4118 3.29468H13.5883ZM18.0001 25.3535C13.9412 25.3535 10.6471 22.0594 10.6471 18.0006C10.6471 13.9417 13.9412 10.6476 18.0001 10.6476C22.0589 10.6476 25.353 13.9417 25.353 18.0006C25.353 22.0594 22.0589 25.3535 18.0001 25.3535Z" fill="#3E4753"/>
</g>
<defs>
<clipPath id="clip0_2082_6861">
<rect width="35.2941" height="35.2941" fill="white" transform="translate(0.353027 0.353516)"/>
</clipPath>
</defs>
</svg>
