<svg width="22" height="21" viewBox="0 0 22 21" fill="none" xmlns="http://www.w3.org/2000/svg">
<path d="M8.07558 3.61832C9.39185 1.25797 10.0495 0.0777893 11.0333 0.0777893C12.0171 0.0777893 12.6747 1.25797 13.991 3.61832L14.3318 4.22919C14.7058 4.90031 14.8928 5.23587 15.1837 5.45716C15.4745 5.67844 15.8382 5.76051 16.5654 5.92466L17.2261 6.07426C19.7818 6.65292 21.0586 6.94173 21.363 7.91932C21.6663 8.89588 20.7957 9.91503 19.0535 11.9523L18.6026 12.479C18.1081 13.0577 17.8598 13.3475 17.7487 13.7049C17.6375 14.0633 17.6749 14.4498 17.7497 15.2217L17.8183 15.925C18.0811 18.6438 18.2131 20.0026 17.4173 20.6062C16.6215 21.2109 15.4247 20.6592 13.0332 19.558L12.4129 19.2733C11.7335 18.9596 11.3938 18.8038 11.0333 18.8038C10.6728 18.8038 10.3331 18.9596 9.65261 19.2733L9.03448 19.558C6.64191 20.6592 5.44512 21.2098 4.65036 20.6073C3.85354 20.0026 3.98548 18.6438 4.24831 15.925L4.31688 15.2227C4.39168 14.4498 4.42908 14.0633 4.31688 13.7059C4.20676 13.3475 3.95847 13.0577 3.46395 12.48L3.01308 11.9523C1.27086 9.91607 0.40027 8.89692 0.703626 7.91932C1.00802 6.94173 2.28585 6.65188 4.84152 6.07426L5.50225 5.92466C6.22844 5.76051 6.59101 5.67844 6.88294 5.45716C7.17383 5.23587 7.36083 4.90031 7.73483 4.22919L8.07558 3.61832Z" fill="#C7CFD7"/>
</svg>
