<svg width="41" height="57" viewBox="0 0 41 57" fill="none" xmlns="http://www.w3.org/2000/svg">
<path id="Vector" d="M40.7812 20.3906C40.7812 9.14766 31.6336 0 20.3906 0C9.14766 0 0 9.14766 0 20.3906C0 30.7605 7.78125 39.348 17.8125 40.6184V44.2969H13.5938C12.91 44.2969 12.2542 44.5685 11.7707 45.052C11.2872 45.5355 11.0156 46.1912 11.0156 46.875C11.0156 47.5588 11.2872 48.2145 11.7707 48.698C12.2542 49.1815 12.91 49.4531 13.5938 49.4531H17.8125V53.6719C17.8125 54.3556 18.0841 55.0114 18.5676 55.4949C19.0511 55.9784 19.7069 56.25 20.3906 56.25C21.0744 56.25 21.7301 55.9784 22.2136 55.4949C22.6971 55.0114 22.9688 54.3556 22.9688 53.6719V49.4531H27.1875C27.8713 49.4531 28.527 49.1815 29.0105 48.698C29.494 48.2145 29.7656 47.5588 29.7656 46.875C29.7656 46.1912 29.494 45.5355 29.0105 45.052C28.527 44.5685 27.8713 44.2969 27.1875 44.2969H22.9688V40.6184C33 39.348 40.7812 30.7605 40.7812 20.3906ZM5.15625 20.3906C5.15625 11.9906 11.9906 5.15625 20.3906 5.15625C28.7906 5.15625 35.625 11.9906 35.625 20.3906C35.625 28.7906 28.7906 35.625 20.3906 35.625C11.9906 35.625 5.15625 28.7906 5.15625 20.3906Z" fill="white"/>
</svg>
