<svg width="60" height="60" viewBox="0 0 60 60" fill="none" xmlns="http://www.w3.org/2000/svg">
<g id="ion:female">
<path id="Vector" d="M50.3906 22.2656C50.3906 11.0227 41.243 1.875 30 1.875C18.757 1.875 9.60938 11.0227 9.60938 22.2656C9.60938 32.6355 17.3906 41.223 27.4219 42.4934V46.1719H23.2031C22.5194 46.1719 21.8636 46.4435 21.3801 46.927C20.8966 47.4105 20.625 48.0662 20.625 48.75C20.625 49.4338 20.8966 50.0895 21.3801 50.573C21.8636 51.0565 22.5194 51.3281 23.2031 51.3281H27.4219V55.5469C27.4219 56.2306 27.6935 56.8864 28.177 57.3699C28.6605 57.8534 29.3162 58.125 30 58.125C30.6838 58.125 31.3395 57.8534 31.823 57.3699C32.3065 56.8864 32.5781 56.2306 32.5781 55.5469V51.3281H36.7969C37.4806 51.3281 38.1364 51.0565 38.6199 50.573C39.1034 50.0895 39.375 49.4338 39.375 48.75C39.375 48.0662 39.1034 47.4105 38.6199 46.927C38.1364 46.4435 37.4806 46.1719 36.7969 46.1719H32.5781V42.4934C42.6094 41.223 50.3906 32.6355 50.3906 22.2656ZM14.7656 22.2656C14.7656 13.8656 21.6 7.03125 30 7.03125C38.4 7.03125 45.2344 13.8656 45.2344 22.2656C45.2344 30.6656 38.4 37.5 30 37.5C21.6 37.5 14.7656 30.6656 14.7656 22.2656Z" fill="#3E5E8E"/>
</g>
</svg>
