<svg width="22" height="21" viewBox="0 0 22 21" fill="none" xmlns="http://www.w3.org/2000/svg">
<path d="M8.00893 3.61829C9.3252 1.25794 9.98282 0.0777588 10.9666 0.0777588C11.9505 0.0777588 12.6081 1.25794 13.9244 3.61829L14.2651 4.22916C14.6391 4.90028 14.8261 5.23584 15.117 5.45713C15.4079 5.67841 15.7715 5.76048 16.4987 5.92463L17.1595 6.07423C19.7151 6.65289 20.9919 6.9417 21.2963 7.91929C21.5997 8.89585 20.7291 9.915 18.9869 11.9523L18.536 12.479C18.0415 13.0576 17.7932 13.3475 17.682 13.7049C17.5709 14.0633 17.6083 14.4497 17.6831 15.2216L17.7516 15.925C18.0145 18.6437 18.1464 20.0026 17.3506 20.6062C16.5548 21.2108 15.358 20.6592 12.9665 19.558L12.3463 19.2733C11.6669 18.9596 11.3271 18.8037 10.9666 18.8037C10.6062 18.8037 10.2664 18.9596 9.58596 19.2733L8.96783 19.558C6.57526 20.6592 5.37846 21.2098 4.58371 20.6072C3.78689 20.0026 3.91883 18.6437 4.18166 15.925L4.25023 15.2227C4.32503 14.4497 4.36243 14.0633 4.25023 13.7059C4.14011 13.3475 3.89181 13.0576 3.3973 12.48L2.94643 11.9523C1.20421 9.91604 0.33362 8.89689 0.636975 7.91929C0.94137 6.9417 2.2192 6.65185 4.77487 6.07423L5.4356 5.92463C6.16179 5.76048 6.52436 5.67841 6.81629 5.45713C7.10718 5.23584 7.29418 4.90028 7.66818 4.22916L8.00893 3.61829Z" fill="#FFDB1C"/>
</svg>
