<svg width="14" height="14" viewBox="0 0 14 14" fill="none" xmlns="http://www.w3.org/2000/svg">
<path d="M11.6666 3.26671C11.6666 2.94004 11.6666 2.77671 11.6024 2.65187C11.5467 2.54216 11.4577 2.45292 11.3481 2.39696C11.2233 2.33337 11.0599 2.33337 10.7333 2.33337H3.26659C2.93992 2.33337 2.77659 2.33337 2.65175 2.39696C2.542 2.45288 2.45276 2.54212 2.39684 2.65187C2.33325 2.77671 2.33325 2.94004 2.33325 3.26671V3.69662C2.33325 3.83954 2.33325 3.91071 2.34959 3.97779C2.36387 4.03751 2.38749 4.0946 2.41959 4.14696C2.45517 4.20529 2.50592 4.25604 2.60625 4.35696L5.55967 7.30979C5.66059 7.41071 5.71134 7.46146 5.74692 7.51979C5.779 7.57229 5.80292 7.62946 5.81692 7.68896C5.83325 7.75546 5.83325 7.82604 5.83325 7.96546V10.7398C5.83325 11.2397 5.83325 11.49 5.93825 11.6405C5.98381 11.7055 6.04218 11.7606 6.10979 11.8024C6.17739 11.8441 6.25281 11.8716 6.33142 11.8831C6.51284 11.91 6.73683 11.7985 7.18367 11.5745L7.65033 11.3412C7.83817 11.2479 7.9315 11.2012 7.99975 11.1312C8.06029 11.0694 8.10632 10.9949 8.1345 10.913C8.16658 10.8209 8.16659 10.7159 8.16659 10.5065V7.97012C8.16659 7.82721 8.16659 7.75604 8.18292 7.68896C8.19718 7.62923 8.22081 7.57214 8.25292 7.51979C8.28792 7.46146 8.33867 7.41129 8.43784 7.31212L8.44017 7.30979L11.3936 4.35696C11.4939 4.25604 11.5441 4.20529 11.5803 4.14696C11.6124 4.09463 11.636 4.03753 11.6503 3.97779C11.6666 3.91187 11.6666 3.84071 11.6666 3.70129V3.26671Z" stroke="#8B95A1" stroke-width="1.2" stroke-linecap="round" stroke-linejoin="round"/>
</svg>
