<svg width="40" height="40" viewBox="0 0 40 40" fill="none" xmlns="http://www.w3.org/2000/svg">
<g clip-path="url(#clip0_1072_6581)">
<mask id="mask0_1072_6581" style="mask-type:luminance" maskUnits="userSpaceOnUse" x="0" y="5" width="40" height="30">
<path d="M37.1429 5.71436H2.85714C1.27919 5.71436 0 6.99354 0 8.5715V31.4286C0 33.0066 1.27919 34.2858 2.85714 34.2858H37.1429C38.7208 34.2858 40 33.0066 40 31.4286V8.5715C40 6.99354 38.7208 5.71436 37.1429 5.71436Z" fill="white"/>
</mask>
<g mask="url(#mask0_1072_6581)">
<path d="M37.1429 5.71436H2.85714C1.27919 5.71436 0 6.99354 0 8.5715V31.4286C0 33.0066 1.27919 34.2858 2.85714 34.2858H37.1429C38.7208 34.2858 40 33.0066 40 31.4286V8.5715C40 6.99354 38.7208 5.71436 37.1429 5.71436Z" fill="white"/>
<mask id="mask1_1072_6581" style="mask-type:alpha" maskUnits="userSpaceOnUse" x="0" y="5" width="40" height="30">
<path d="M37.1429 5.71436H2.85714C1.27919 5.71436 0 6.99354 0 8.5715V31.4286C0 33.0066 1.27919 34.2858 2.85714 34.2858H37.1429C38.7208 34.2858 40 33.0066 40 31.4286V8.5715C40 6.99354 38.7208 5.71436 37.1429 5.71436Z" fill="white"/>
</mask>
<g mask="url(#mask1_1072_6581)">
<path fill-rule="evenodd" clip-rule="evenodd" d="M40 5.71436H0V7.61911H40V5.71436ZM40 9.52388H0V11.4286H40V9.52388ZM0 13.3334H40V15.2382H0V13.3334ZM40 17.1429H0V19.0477H40V17.1429ZM0 20.9525H40V22.8572H0V20.9525ZM40 24.7619H0V26.6668H40V24.7619ZM0 28.5715H40V30.4762H0V28.5715ZM40 32.3811H0V34.2858H40V32.3811Z" fill="#D02F44"/>
<path d="M17.1429 5.71436H0V19.0477H17.1429V5.71436Z" fill="#46467F"/>
<g filter="url(#filter0_d_1072_6581)">
<path fill-rule="evenodd" clip-rule="evenodd" d="M3.80956 8.57151C3.80956 9.0975 3.38316 9.5239 2.85717 9.5239C2.33119 9.5239 1.90479 9.0975 1.90479 8.57151C1.90479 8.04554 2.33119 7.61914 2.85717 7.61914C3.38316 7.61914 3.80956 8.04554 3.80956 8.57151ZM7.61907 8.57151C7.61907 9.0975 7.19268 9.5239 6.6667 9.5239C6.14071 9.5239 5.71431 9.0975 5.71431 8.57151C5.71431 8.04554 6.14071 7.61914 6.6667 7.61914C7.19268 7.61914 7.61907 8.04554 7.61907 8.57151ZM10.4762 9.5239C11.0022 9.5239 11.4286 9.0975 11.4286 8.57151C11.4286 8.04554 11.0022 7.61914 10.4762 7.61914C9.95023 7.61914 9.52384 8.04554 9.52384 8.57151C9.52384 9.0975 9.95023 9.5239 10.4762 9.5239ZM15.2381 8.57151C15.2381 9.0975 14.8118 9.5239 14.2857 9.5239C13.7598 9.5239 13.3334 9.0975 13.3334 8.57151C13.3334 8.04554 13.7598 7.61914 14.2857 7.61914C14.8118 7.61914 15.2381 8.04554 15.2381 8.57151ZM4.76193 11.4287C5.28791 11.4287 5.71431 11.0023 5.71431 10.4763C5.71431 9.9503 5.28791 9.5239 4.76193 9.5239C4.23594 9.5239 3.80956 9.9503 3.80956 10.4763C3.80956 11.0023 4.23594 11.4287 4.76193 11.4287ZM9.52384 10.4763C9.52384 11.0023 9.09744 11.4287 8.57146 11.4287C8.04547 11.4287 7.61907 11.0023 7.61907 10.4763C7.61907 9.9503 8.04547 9.5239 8.57146 9.5239C9.09744 9.5239 9.52384 9.9503 9.52384 10.4763ZM12.381 11.4287C12.907 11.4287 13.3334 11.0023 13.3334 10.4763C13.3334 9.9503 12.907 9.5239 12.381 9.5239C11.855 9.5239 11.4286 9.9503 11.4286 10.4763C11.4286 11.0023 11.855 11.4287 12.381 11.4287ZM15.2381 12.381C15.2381 12.907 14.8118 13.3334 14.2857 13.3334C13.7598 13.3334 13.3334 12.907 13.3334 12.381C13.3334 11.8551 13.7598 11.4287 14.2857 11.4287C14.8118 11.4287 15.2381 11.8551 15.2381 12.381ZM10.4762 13.3334C11.0022 13.3334 11.4286 12.907 11.4286 12.381C11.4286 11.8551 11.0022 11.4287 10.4762 11.4287C9.95023 11.4287 9.52384 11.8551 9.52384 12.381C9.52384 12.907 9.95023 13.3334 10.4762 13.3334ZM7.61907 12.381C7.61907 12.907 7.19268 13.3334 6.6667 13.3334C6.14071 13.3334 5.71431 12.907 5.71431 12.381C5.71431 11.8551 6.14071 11.4287 6.6667 11.4287C7.19268 11.4287 7.61907 11.8551 7.61907 12.381ZM2.85717 13.3334C3.38316 13.3334 3.80956 12.907 3.80956 12.381C3.80956 11.8551 3.38316 11.4287 2.85717 11.4287C2.33119 11.4287 1.90479 11.8551 1.90479 12.381C1.90479 12.907 2.33119 13.3334 2.85717 13.3334ZM5.71431 14.2858C5.71431 14.8118 5.28791 15.2382 4.76193 15.2382C4.23594 15.2382 3.80956 14.8118 3.80956 14.2858C3.80956 13.7598 4.23594 13.3334 4.76193 13.3334C5.28791 13.3334 5.71431 13.7598 5.71431 14.2858ZM8.57146 15.2382C9.09744 15.2382 9.52384 14.8118 9.52384 14.2858C9.52384 13.7598 9.09744 13.3334 8.57146 13.3334C8.04547 13.3334 7.61907 13.7598 7.61907 14.2858C7.61907 14.8118 8.04547 15.2382 8.57146 15.2382ZM13.3334 14.2858C13.3334 14.8118 12.907 15.2382 12.381 15.2382C11.855 15.2382 11.4286 14.8118 11.4286 14.2858C11.4286 13.7598 11.855 13.3334 12.381 13.3334C12.907 13.3334 13.3334 13.7598 13.3334 14.2858ZM14.2857 17.143C14.8118 17.143 15.2381 16.7166 15.2381 16.1906C15.2381 15.6646 14.8118 15.2382 14.2857 15.2382C13.7598 15.2382 13.3334 15.6646 13.3334 16.1906C13.3334 16.7166 13.7598 17.143 14.2857 17.143ZM11.4286 16.1906C11.4286 16.7166 11.0022 17.143 10.4762 17.143C9.95023 17.143 9.52384 16.7166 9.52384 16.1906C9.52384 15.6646 9.95023 15.2382 10.4762 15.2382C11.0022 15.2382 11.4286 15.6646 11.4286 16.1906ZM6.6667 17.143C7.19268 17.143 7.61907 16.7166 7.61907 16.1906C7.61907 15.6646 7.19268 15.2382 6.6667 15.2382C6.14071 15.2382 5.71431 15.6646 5.71431 16.1906C5.71431 16.7166 6.14071 17.143 6.6667 17.143ZM3.80956 16.1906C3.80956 16.7166 3.38316 17.143 2.85717 17.143C2.33119 17.143 1.90479 16.7166 1.90479 16.1906C1.90479 15.6646 2.33119 15.2382 2.85717 15.2382C3.38316 15.2382 3.80956 15.6646 3.80956 16.1906Z" fill="url(#paint0_linear_1072_6581)"/>
</g>
</g>
</g>
</g>
<defs>
<filter id="filter0_d_1072_6581" x="1.90479" y="7.61914" width="13.3333" height="11.6668" filterUnits="userSpaceOnUse" color-interpolation-filters="sRGB">
<feFlood flood-opacity="0" result="BackgroundImageFix"/>
<feColorMatrix in="SourceAlpha" type="matrix" values="0 0 0 0 0 0 0 0 0 0 0 0 0 0 0 0 0 0 127 0" result="hardAlpha"/>
<feOffset dy="2.14286"/>
<feColorMatrix type="matrix" values="0 0 0 0 0 0 0 0 0 0 0 0 0 0 0 0 0 0 0.06 0"/>
<feBlend mode="normal" in2="BackgroundImageFix" result="effect1_dropShadow_1072_6581"/>
<feBlend mode="normal" in="SourceGraphic" in2="effect1_dropShadow_1072_6581" result="shape"/>
</filter>
<linearGradient id="paint0_linear_1072_6581" x1="1.90479" y1="7.61914" x2="1.90479" y2="17.1429" gradientUnits="userSpaceOnUse">
<stop stop-color="white"/>
<stop offset="1" stop-color="#F0F0F0"/>
</linearGradient>
<clipPath id="clip0_1072_6581">
<rect width="40" height="40" fill="white"/>
</clipPath>
</defs>
</svg>
