<svg width="40" height="40" viewBox="0 0 40 40" fill="none" xmlns="http://www.w3.org/2000/svg">
<g clip-path="url(#clip0_1072_6595)">
<path d="M35.5556 5.55566H4.44444C3.2657 5.55566 2.13524 6.02392 1.30175 6.85741C0.468253 7.69091 0 8.82137 0 10.0001L0 30.0001C0 31.1788 0.468253 32.3093 1.30175 33.1428C2.13524 33.9763 3.2657 34.4446 4.44444 34.4446H35.5556C36.7343 34.4446 37.8648 33.9763 38.6983 33.1428C39.5317 32.3093 40 31.1788 40 30.0001V10.0001C40 8.82137 39.5317 7.69091 38.6983 6.85741C37.8648 6.02392 36.7343 5.55566 35.5556 5.55566Z" fill="#003399"/>
<path d="M20.599 10.7832L21.5423 10.0977H20.3768L20.0157 8.98877L19.6557 10.0977H18.4901L19.4334 10.7832L19.0723 11.8921L20.0157 11.2065L20.959 11.8921L20.599 10.7832ZM20.599 30.0421L21.5423 29.3565H20.3768L20.0157 28.2477L19.6557 29.3565H18.4901L19.4334 30.0421L19.0723 31.151L20.0157 30.4654L20.959 31.151L20.599 30.0421ZM10.9701 20.4121L11.9134 19.7265H10.7468L10.3868 18.6177L10.0257 19.7265H8.86011L9.80344 20.4121L9.44344 21.521L10.3868 20.8354L11.3301 21.521L10.9701 20.4121ZM12.2001 15.651L13.1434 14.9654H11.9768L11.6168 13.8565L11.2568 14.9654H10.0901L11.0334 15.651L10.6734 16.7599L11.6168 16.0743L12.5601 16.7599L12.2001 15.651ZM12.2001 25.2277L13.1434 24.5421H11.9768L11.6168 23.4332L11.2568 24.5421H10.0901L11.0334 25.2277L10.6734 26.3365L11.6168 25.651L12.5601 26.3365L12.2001 25.2277ZM15.7846 12.0732L16.7279 11.3877H15.5612L15.2012 10.2788L14.8412 11.3877H13.6746L14.6179 12.0732L14.2579 13.1821L15.2012 12.4965L16.1446 13.1821L15.7846 12.0732ZM15.7846 28.8143L16.7279 28.1288H15.5612L15.2012 27.0199L14.8412 28.1288H13.6746L14.6179 28.8143L14.2579 29.9232L15.2012 29.2388L16.1446 29.9232L15.7846 28.8143ZM29.0301 20.4121L28.0868 19.7265H29.2534L29.6134 18.6177L29.9745 19.7265H31.1401L30.1968 20.4121L30.5568 21.521L29.6134 20.8354L28.6701 21.521L29.0301 20.4121ZM27.8001 15.651L26.8568 14.9654H28.0234L28.3834 13.8565L28.7434 14.9654H29.9101L28.9668 15.651L29.3268 16.7599L28.3834 16.0743L27.4401 16.7599L27.8001 15.651ZM27.8001 25.2277L26.8568 24.5421H28.0234L28.3834 23.4332L28.7434 24.5421H29.9101L28.9668 25.2277L29.3268 26.3365L28.3834 25.651L27.4401 26.3365L27.8001 25.2277ZM24.2157 12.0732L23.2723 11.3877H24.439L24.799 10.2788L25.159 11.3877H26.3257L25.3823 12.0732L25.7423 13.1821L24.799 12.4965L23.8557 13.1821L24.2157 12.0732ZM24.2157 28.8143L23.2723 28.1288H24.439L24.799 27.0199L25.159 28.1288H26.3257L25.3823 28.8143L25.7423 29.9232L24.799 29.2388L23.8557 29.9232L24.2157 28.8143Z" fill="#FFCC00"/>
</g>
<defs>
<clipPath id="clip0_1072_6595">
<rect width="40" height="40" fill="white"/>
</clipPath>
</defs>
</svg>
