<svg width="16" height="16" viewBox="0 0 16 16" fill="none" xmlns="http://www.w3.org/2000/svg">
<g clip-path="url(#clip0_2245_6746)">
<path d="M6.906 1.16402C7.21627 0.915465 7.60195 0.780029 7.9995 0.780029C8.39705 0.780029 8.78273 0.915465 9.093 1.16402L14.343 5.36402C14.758 5.69602 15 6.19902 15 6.73102V13.75C15 14.2141 14.8156 14.6593 14.4874 14.9875C14.1592 15.3156 13.7141 15.5 13.25 15.5H9.75C9.55109 15.5 9.36032 15.421 9.21967 15.2803C9.07902 15.1397 9 14.9489 9 14.75V9.50002H7V14.75C7 14.9489 6.92098 15.1397 6.78033 15.2803C6.63968 15.421 6.44891 15.5 6.25 15.5H2.75C2.28587 15.5 1.84075 15.3156 1.51256 14.9875C1.18437 14.6593 1 14.2141 1 13.75V6.73002C1 6.19902 1.242 5.69602 1.657 5.36402L6.906 1.16402ZM8.156 2.33502C8.1117 2.29964 8.05669 2.28037 8 2.28037C7.94331 2.28037 7.8883 2.29964 7.844 2.33502L2.594 6.53502C2.56459 6.5585 2.54086 6.58833 2.52458 6.62227C2.50831 6.6562 2.4999 6.69338 2.5 6.73102V13.75C2.5 13.888 2.612 14 2.75 14H5.5V8.75002C5.5 8.55111 5.57902 8.36034 5.71967 8.21969C5.86032 8.07903 6.05109 8.00002 6.25 8.00002H9.75C9.94891 8.00002 10.1397 8.07903 10.2803 8.21969C10.421 8.36034 10.5 8.55111 10.5 8.75002V14H13.25C13.3163 14 13.3799 13.9737 13.4268 13.9268C13.4737 13.8799 13.5 13.8163 13.5 13.75V6.73002C13.4999 6.69255 13.4915 6.65557 13.4752 6.62181C13.4589 6.58806 13.4353 6.5584 13.406 6.53502L8.156 2.33502Z" fill="white"/>
</g>
<defs>
<clipPath id="clip0_2245_6746">
<rect width="16" height="16" fill="white" transform="translate(0 0.5)"/>
</clipPath>
</defs>
</svg>
