<svg width="58" height="58" viewBox="0 0 58 58" fill="none" xmlns="http://www.w3.org/2000/svg">
<circle cx="29" cy="29" r="25" fill="white"/>
<path d="M41.3043 44.7672C32.5963 51.5626 20.0283 50.0122 13.2328 41.3042C6.43736 32.5962 7.98779 20.0282 16.6958 13.2327C25.4038 6.43727 37.9718 7.98769 44.7673 16.6957C51.5627 25.4037 50.0123 37.9717 41.3043 44.7672ZM21.8636 19.855C16.8129 23.7963 15.9137 31.0858 19.855 36.1364C23.7964 41.187 31.0859 42.0863 36.1365 38.1449C41.1871 34.2036 42.0864 26.9141 38.145 21.8635C34.2037 16.8128 26.9142 15.9136 21.8636 19.855Z" fill="#F2F4F6"/>
<path d="M11.8132 39.228C10.47 36.971 9.58459 34.4715 9.2074 31.8723C8.83021 29.2731 8.96867 26.625 9.61487 24.0793C10.2611 21.5336 11.4023 19.1401 12.9736 17.0355C14.5448 14.9309 16.5151 13.1563 18.7721 11.8132L23.0679 19.0317C21.7588 19.8107 20.616 20.8399 19.7047 22.0606C18.7934 23.2813 18.1315 24.6695 17.7567 26.146C17.3819 27.6225 17.3016 29.1584 17.5203 30.666C17.7391 32.1735 18.2527 33.6232 19.0317 34.9323L11.8132 39.228Z" fill="#3E5E8E"/>
</svg>
