<svg width="60" height="60" viewBox="0 0 60 60" fill="none" xmlns="http://www.w3.org/2000/svg">
<g id="ion:male">
<path id="Vector" d="M51.7967 5.625H41.2498C40.566 5.625 39.9103 5.89662 39.4268 6.38012C38.9433 6.86361 38.6717 7.51936 38.6717 8.20312C38.6717 8.88689 38.9433 9.54264 39.4268 10.0261C39.9103 10.5096 40.566 10.7812 41.2498 10.7812H45.5729L38.4959 17.8582C30.5049 11.6637 18.9256 12.2332 11.5967 19.5656C3.64668 27.5168 3.64668 40.452 11.6014 48.3984C15.4282 52.2138 20.6116 54.3563 26.0154 54.3563C31.4193 54.3563 36.6027 52.2138 40.4295 48.3984C47.7619 41.0648 48.3314 29.4902 42.1369 21.4992L49.2186 14.427V18.75C49.2186 19.4338 49.4902 20.0895 49.9737 20.573C50.4572 21.0565 51.1129 21.3281 51.7967 21.3281C52.4804 21.3281 53.1362 21.0565 53.6197 20.573C54.1032 20.0895 54.3748 19.4338 54.3748 18.75V8.20312C54.3748 7.86456 54.3081 7.52931 54.1786 7.21652C54.049 6.90373 53.8591 6.61952 53.6197 6.38012C53.3803 6.14071 53.0961 5.95081 52.7833 5.82125C52.4705 5.69169 52.1352 5.625 51.7967 5.625ZM36.7873 44.7562C33.9284 47.6092 30.0544 49.2115 26.0154 49.2115C21.9765 49.2115 18.1025 47.6092 15.2436 44.7562C9.30332 38.8172 9.30332 29.1516 15.2436 23.2125C21.1838 17.2734 30.8482 17.2723 36.7873 23.2125C42.7264 29.1527 42.7275 38.8172 36.7873 44.7562Z" fill="#3E5E8E"/>
</g>
</svg>
