<svg width="24" height="24" viewBox="0 0 24 24" fill="none" xmlns="http://www.w3.org/2000/svg">
<path d="M17.65 6.84989C16.8118 6.00416 15.7944 5.3575 14.6728 4.95768C13.5512 4.55786 12.3542 4.41508 11.17 4.53989C7.50002 4.90989 4.48002 7.88989 4.07002 11.5599C3.52002 16.4099 7.27002 20.4999 12 20.4999C13.5101 20.4999 14.9892 20.0714 16.2655 19.2642C17.5418 18.457 18.5628 17.3043 19.21 15.9399C19.53 15.2699 19.05 14.4999 18.31 14.4999C17.94 14.4999 17.59 14.6999 17.43 15.0299C16.8494 16.2789 15.8564 17.2899 14.6179 17.8927C13.3795 18.4955 11.9712 18.6534 10.63 18.3399C8.41002 17.8499 6.62002 16.0399 6.15002 13.8199C5.95245 12.9422 5.95474 12.0312 6.15672 11.1545C6.35869 10.2778 6.75519 9.45764 7.31687 8.75481C7.87856 8.05198 8.59107 7.48442 9.40169 7.09411C10.2123 6.70379 11.1003 6.50071 12 6.49989C13.66 6.49989 15.14 7.18989 16.22 8.27989L14.71 9.78989C14.08 10.4199 14.52 11.4999 15.41 11.4999H19C19.55 11.4999 20 11.0499 20 10.4999V6.90989C20 6.01989 18.92 5.56989 18.29 6.19989L17.65 6.84989Z" fill="white"/>
</svg>
