<svg width="60" height="60" viewBox="0 0 60 60" fill="none" xmlns="http://www.w3.org/2000/svg">
<path opacity="0.1" fill-rule="evenodd" clip-rule="evenodd" d="M12.5 37.5L8.96447 41.0355C8.02677 41.9732 7.5 43.245 7.5 44.571V45C7.5 47.7615 9.73857 50 12.5 50H47.5C50.2615 50 52.5 47.7615 52.5 45V44.571C52.5 43.245 51.9732 41.9732 51.0355 41.0355L47.5 37.5H12.5Z" fill="#333D4B"/>
<path d="M37.6215 10H22.3784C21.1632 10 20.7765 11.6382 21.8634 12.1817C22.2536 12.3768 22.5 12.7755 22.5 13.2117V25.429C22.5 26.755 21.9732 28.0268 21.0355 28.9645L8.96447 41.0355C8.02677 41.9732 7.5 43.245 7.5 44.571V45C7.5 47.7615 9.73857 50 12.5 50H47.5C50.2615 50 52.5 47.7615 52.5 45V44.571C52.5 43.245 51.9732 41.9732 51.0355 41.0355L38.9645 28.9645C38.0268 28.0268 37.5 26.755 37.5 25.429V13.2117C37.5 12.7755 37.7465 12.3768 38.1365 12.1817C39.2235 11.6382 38.8368 10 37.6215 10Z" stroke="#333D4B" stroke-width="3.5" stroke-linecap="round" stroke-linejoin="round"/>
<path d="M12.5 37.5H47.5" stroke="#333D4B" stroke-width="3.5" stroke-linecap="round" stroke-linejoin="round"/>
</svg>
