<svg width="22" height="20" viewBox="0 0 22 20" fill="none" xmlns="http://www.w3.org/2000/svg">
<path fill-rule="evenodd" clip-rule="evenodd" d="M10.5216 6.8606C9.68896 6.8606 8.89041 7.19137 8.30163 7.78014C7.71285 8.36892 7.38208 9.16747 7.38208 10.0001C7.38208 10.8328 7.71285 11.6313 8.30163 12.2201C8.89041 12.8089 9.68896 13.1397 10.5216 13.1397C11.3543 13.1397 12.1528 12.8089 12.7416 12.2201C13.3304 11.6313 13.6611 10.8328 13.6611 10.0001C13.6611 9.16747 13.3304 8.36892 12.7416 7.78014C12.1528 7.19137 11.3543 6.8606 10.5216 6.8606ZM8.63789 10.0001C8.63789 9.50054 8.83636 9.02141 9.18962 8.66814C9.54289 8.31487 10.022 8.11641 10.5216 8.11641C11.0212 8.11641 11.5003 8.31487 11.8536 8.66814C12.2069 9.02141 12.4053 9.50054 12.4053 10.0001C12.4053 10.4997 12.2069 10.9789 11.8536 11.3321C11.5003 11.6854 11.0212 11.8839 10.5216 11.8839C10.022 11.8839 9.54289 11.6854 9.18962 11.3321C8.83636 10.9789 8.63789 10.4997 8.63789 10.0001Z" fill="#3E5E8E"/>
<path fill-rule="evenodd" clip-rule="evenodd" d="M10.5006 1C10.128 1 9.81743 1 9.56292 1.01674C9.30277 1.02758 9.0462 1.08132 8.80357 1.17581C8.52415 1.29142 8.27024 1.46095 8.05635 1.6747C7.84245 1.88845 7.67276 2.14224 7.55696 2.42158C7.43557 2.7146 7.40292 3.02437 7.38952 3.36093C7.38818 3.48402 7.3556 3.60475 7.29483 3.71179C7.23406 3.81884 7.14709 3.9087 7.04208 3.97293C6.93398 4.03196 6.81266 4.06254 6.68949 4.06181C6.56633 4.06107 6.44538 4.02905 6.33799 3.96874C6.03994 3.81135 5.75529 3.68493 5.4405 3.64307C5.14073 3.60364 4.83613 3.62364 4.5441 3.70193C4.25206 3.78022 3.9783 3.91526 3.73845 4.09935C3.53566 4.2625 3.36114 4.45796 3.22189 4.67786C3.07957 4.89051 2.92385 5.15926 2.73799 5.48158L2.71706 5.51842C2.53036 5.84074 2.37548 6.10949 2.26329 6.33888C2.14608 6.57833 2.05399 6.81442 2.0205 7.07563C1.94063 7.68092 2.10445 8.29316 2.47594 8.77767C2.66934 9.02967 2.92134 9.21302 3.20599 9.39219C3.31211 9.45493 3.40053 9.54364 3.46292 9.64997C3.52531 9.7563 3.55963 9.87675 3.56264 10C3.55963 10.1232 3.52531 10.2437 3.46292 10.35C3.40053 10.4564 3.31211 10.5451 3.20599 10.6078C2.92134 10.787 2.67017 10.9703 2.47594 11.2223C2.29185 11.4622 2.15681 11.7359 2.07852 12.028C2.00023 12.32 1.98023 12.6246 2.01966 12.9244C2.05399 13.1856 2.14524 13.4217 2.26245 13.6611C2.37548 13.8905 2.53036 14.1593 2.71706 14.4816L2.73799 14.5184C2.92385 14.8407 3.07957 15.1095 3.22189 15.3221C3.37008 15.5423 3.52915 15.7407 3.73845 15.8998C3.97824 16.084 4.25197 16.2192 4.54401 16.2977C4.83605 16.3761 5.14068 16.3962 5.4405 16.3569C5.75529 16.3151 6.03994 16.1895 6.33799 16.0313C6.44525 15.971 6.56606 15.939 6.68908 15.9383C6.81209 15.9376 6.93327 15.9681 7.04124 16.0271C7.14683 16.0908 7.23435 16.1805 7.29546 16.2876C7.35657 16.3948 7.38924 16.5157 7.39036 16.6391C7.40292 16.9756 7.43557 17.2854 7.5578 17.5784C7.67341 17.8578 7.84293 18.1117 8.05668 18.3256C8.27044 18.5395 8.52423 18.7092 8.80357 18.825C9.04636 18.9255 9.29752 18.9648 9.56292 18.9824C9.81743 19 10.128 19 10.5006 19H10.5425C10.915 19 11.2256 19 11.4801 18.9833C11.7464 18.9648 11.9967 18.9255 12.2395 18.8242C12.5189 18.7086 12.7728 18.5391 12.9867 18.3253C13.2006 18.1116 13.3703 17.8578 13.4861 17.5784C13.6075 17.2854 13.6401 16.9756 13.6535 16.6391C13.6547 16.5158 13.6872 16.3949 13.748 16.2877C13.8088 16.1805 13.8958 16.0905 14.001 16.0262C14.1091 15.9673 14.2305 15.9369 14.3537 15.9378C14.4768 15.9387 14.5977 15.9708 14.7051 16.0313C15.0031 16.1887 15.2878 16.3151 15.6025 16.3561C16.2078 16.436 16.8201 16.2721 17.3046 15.9007C17.5139 15.7399 17.673 15.5423 17.8212 15.3221C17.9635 15.1095 18.1192 14.8407 18.3051 14.5184L18.326 14.4816C18.5127 14.1593 18.6676 13.8905 18.7798 13.6611C18.897 13.4217 18.9891 13.1847 19.0225 12.9244C19.1024 12.3191 18.9386 11.7068 18.5671 11.2223C18.3737 10.9703 18.1217 10.787 17.8371 10.6078C17.7309 10.5451 17.6425 10.4564 17.5801 10.35C17.5177 10.2437 17.4834 10.1232 17.4804 10C17.4804 9.76726 17.6077 9.53619 17.8371 9.39219C18.1217 9.21302 18.3729 9.02967 18.5671 8.77767C18.7512 8.53783 18.8862 8.26407 18.9645 7.97203C19.0428 7.67999 19.0628 7.3754 19.0234 7.07563C18.9835 6.81836 18.9015 6.56943 18.7806 6.33888C18.6377 6.06072 18.486 5.7871 18.326 5.51842L18.3051 5.48158C18.1521 5.20872 17.9907 4.94069 17.8212 4.67786C17.6819 4.45819 17.5074 4.26301 17.3046 4.10019C17.0648 3.91595 16.7911 3.78076 16.499 3.70232C16.207 3.62389 15.9024 3.60376 15.6025 3.64307C15.2878 3.68493 15.0031 3.81051 14.7051 3.96874C14.5978 4.0289 14.477 4.06084 14.354 4.06157C14.231 4.06231 14.1098 4.03181 14.0018 3.97293C13.8965 3.9089 13.8092 3.81913 13.7481 3.71207C13.687 3.60501 13.6542 3.48418 13.6527 3.36093C13.6401 3.02437 13.6075 2.7146 13.4852 2.42158C13.3696 2.14216 13.2001 1.88826 12.9864 1.67436C12.7726 1.46047 12.5188 1.29077 12.2395 1.17498C11.9967 1.07451 11.7455 1.03516 11.4801 1.01758C11.2256 1 10.915 1 10.5425 1H10.5006ZM9.28413 2.33535C9.34859 2.30856 9.44655 2.28428 9.64831 2.27005C9.8551 2.25581 10.123 2.25581 10.5215 2.25581C10.92 2.25581 11.1879 2.25581 11.3947 2.27005C11.5965 2.28428 11.6945 2.30856 11.7589 2.33535C12.0159 2.44167 12.2194 2.64512 12.3257 2.90214C12.3592 2.98251 12.3868 3.10893 12.3977 3.40781C12.4228 4.07088 12.7652 4.70967 13.3731 5.06046C13.9809 5.41209 14.7051 5.38865 15.2919 5.07888C15.5565 4.93907 15.6796 4.89972 15.7666 4.88884C16.0417 4.85249 16.32 4.92687 16.5402 5.09563C16.5955 5.13833 16.6658 5.21116 16.7788 5.3786C16.8952 5.55107 17.0292 5.78298 17.2284 6.12791C17.4277 6.47284 17.5608 6.70558 17.652 6.89144C17.7416 7.07312 17.7692 7.17023 17.7776 7.23972C17.814 7.5148 17.7396 7.79305 17.5708 8.0133C17.5172 8.08279 17.4218 8.16986 17.169 8.32893C16.6064 8.68223 16.2246 9.29842 16.2246 10C16.2246 10.7016 16.6064 11.3178 17.169 11.6711C17.4218 11.8301 17.5172 11.9172 17.5708 11.9867C17.7399 12.2069 17.8136 12.4848 17.7776 12.7603C17.7692 12.8298 17.7408 12.9277 17.652 13.1086C17.5608 13.2953 17.4277 13.5272 17.2284 13.8721C17.0292 14.217 16.8944 14.4489 16.7788 14.6214C16.6658 14.7888 16.5955 14.8617 16.5402 14.9044C16.32 15.0731 16.0417 15.1475 15.7666 15.1112C15.6796 15.1003 15.5573 15.0609 15.2919 14.9211C14.7059 14.6113 13.9809 14.5879 13.3731 14.9387C12.7652 15.2903 12.4228 15.9291 12.3977 16.5922C12.3868 16.8911 12.3592 17.0175 12.3257 17.0979C12.2731 17.2249 12.196 17.3404 12.0987 17.4377C12.0015 17.5349 11.886 17.6121 11.7589 17.6647C11.6945 17.6914 11.5965 17.7157 11.3947 17.73C11.1879 17.7442 10.92 17.7442 10.5215 17.7442C10.123 17.7442 9.8551 17.7442 9.64831 17.73C9.44655 17.7157 9.34859 17.6914 9.28413 17.6647C9.15704 17.6121 9.04157 17.5349 8.94432 17.4377C8.84706 17.3404 8.76993 17.2249 8.71734 17.0979C8.68385 17.0175 8.65622 16.8911 8.64534 16.5922C8.62022 15.9291 8.2778 15.2903 7.66999 14.9395C7.06217 14.5879 6.33799 14.6113 5.7511 14.9211C5.48655 15.0609 5.36348 15.1003 5.27641 15.1112C5.00133 15.1475 4.72308 15.0731 4.50283 14.9044C4.44757 14.8617 4.37724 14.7888 4.26422 14.6214C4.10675 14.3763 3.95682 14.1264 3.81464 13.8721C3.61538 13.5272 3.48227 13.2944 3.39101 13.1086C3.30143 12.9269 3.2738 12.8298 3.26543 12.7603C3.22908 12.4852 3.30346 12.2069 3.47222 11.9867C3.5258 11.9172 3.62124 11.8301 3.87408 11.6711C4.43669 11.3178 4.81845 10.7016 4.81845 10C4.81845 9.29842 4.43669 8.68223 3.87408 8.32893C3.62124 8.16986 3.5258 8.08279 3.47222 8.0133C3.30346 7.79305 3.22908 7.5148 3.26543 7.23972C3.2738 7.17023 3.30227 7.07228 3.39101 6.89144C3.48227 6.70474 3.61538 6.47284 3.81464 6.12791C4.0139 5.78298 4.14869 5.55107 4.26422 5.3786C4.37724 5.21116 4.44757 5.13833 4.50283 5.09563C4.72308 4.92687 5.00133 4.85249 5.27641 4.88884C5.36348 4.89972 5.48571 4.93907 5.7511 5.07888C6.33715 5.38865 7.06217 5.41209 7.66999 5.06046C8.2778 4.70967 8.62022 4.07088 8.64534 3.40781C8.65622 3.10893 8.68385 2.98251 8.71734 2.90214C8.82366 2.64512 9.0271 2.44167 9.28413 2.33535Z" fill="#3E5E8E"/>
</svg>
