<svg width="22" height="22" viewBox="0 0 22 22" fill="none" xmlns="http://www.w3.org/2000/svg">
<path d="M11 0.5C13.7848 0.5 16.4555 1.60625 18.4246 3.57538C20.3938 5.54451 21.5 8.21523 21.5 11C21.5 13.7848 20.3938 16.4555 18.4246 18.4246C16.4555 20.3938 13.7848 21.5 11 21.5C8.21523 21.5 5.54451 20.3938 3.57538 18.4246C1.60625 16.4555 0.5 13.7848 0.5 11C0.5 8.21523 1.60625 5.54451 3.57538 3.57538C5.54451 1.60625 8.21523 0.5 11 0.5ZM9.692 13.0715L7.3595 10.7375C7.27588 10.6539 7.17661 10.5876 7.06736 10.5423C6.9581 10.497 6.84101 10.4737 6.72275 10.4737C6.60449 10.4737 6.4874 10.497 6.37814 10.5423C6.26889 10.5876 6.16962 10.6539 6.086 10.7375C5.91712 10.9064 5.82225 11.1354 5.82225 11.3743C5.82225 11.6131 5.91712 11.8421 6.086 12.011L9.056 14.981C9.13938 15.065 9.23858 15.1317 9.34786 15.1773C9.45715 15.2228 9.57436 15.2462 9.69275 15.2462C9.81114 15.2462 9.92835 15.2228 10.0376 15.1773C10.1469 15.1317 10.2461 15.065 10.3295 14.981L16.4795 8.8295C16.5642 8.74623 16.6316 8.647 16.6778 8.53755C16.724 8.42809 16.7481 8.31057 16.7487 8.19177C16.7492 8.07297 16.7262 7.95523 16.6811 7.84535C16.6359 7.73547 16.5694 7.63562 16.4854 7.55156C16.4015 7.46751 16.3017 7.4009 16.1919 7.3556C16.0821 7.31029 15.9644 7.28718 15.8455 7.28759C15.7267 7.288 15.6092 7.31193 15.4997 7.358C15.3902 7.40407 15.2909 7.47136 15.2075 7.556L9.692 13.0715Z" fill="white"/>
</svg>
