<svg width="24" height="24" viewBox="0 0 24 24" fill="none" xmlns="http://www.w3.org/2000/svg">
<g clip-path="url(#clip0_2322_6822)">
<path d="M13.2989 3.14795L21.9329 18.1019C22.0646 18.33 22.1339 18.5886 22.1339 18.8519C22.1339 19.1152 22.0646 19.3739 21.9329 19.6019C21.8013 19.83 21.6119 20.0193 21.3839 20.151C21.1559 20.2826 20.8972 20.3519 20.6339 20.3519H3.36593C3.10263 20.3519 2.84397 20.2826 2.61594 20.151C2.38792 20.0193 2.19857 19.83 2.06692 19.6019C1.93527 19.3739 1.86597 19.1152 1.86597 18.8519C1.86597 18.5886 1.93528 18.33 2.06693 18.1019L10.7009 3.14795C11.2779 2.14795 12.7209 2.14795 13.2989 3.14795ZM11.9999 4.89795L4.23193 18.3519H19.7679L11.9999 4.89795ZM11.9999 14.9999C12.2651 14.9999 12.5195 15.1053 12.707 15.2928C12.8946 15.4804 12.9999 15.7347 12.9999 15.9999C12.9999 16.2652 12.8946 16.5195 12.707 16.7071C12.5195 16.8946 12.2651 16.9999 11.9999 16.9999C11.7347 16.9999 11.4804 16.8946 11.2928 16.7071C11.1053 16.5195 10.9999 16.2652 10.9999 15.9999C10.9999 15.7347 11.1053 15.4804 11.2928 15.2928C11.4804 15.1053 11.7347 14.9999 11.9999 14.9999ZM11.9999 7.99995C12.2651 7.99995 12.5195 8.10531 12.707 8.29284C12.8946 8.48038 12.9999 8.73473 12.9999 8.99995V12.9999C12.9999 13.2652 12.8946 13.5195 12.707 13.7071C12.5195 13.8946 12.2651 13.9999 11.9999 13.9999C11.7347 13.9999 11.4804 13.8946 11.2928 13.7071C11.1053 13.5195 10.9999 13.2652 10.9999 12.9999V8.99995C10.9999 8.73473 11.1053 8.48038 11.2928 8.29284C11.4804 8.10531 11.7347 7.99995 11.9999 7.99995Z" fill="white"/>
</g>
<defs>
<clipPath id="clip0_2322_6822">
<rect width="24" height="24" fill="white"/>
</clipPath>
</defs>
</svg>
