<svg width="27" height="27" viewBox="0 0 27 27" fill="none" xmlns="http://www.w3.org/2000/svg">
<rect width="27" height="27" rx="13.5" fill="#F2F4F6"/>
<path d="M11.9062 15.4375C11.9141 13.4922 12.4375 12.8984 13.375 12.3125C14.0469 11.875 14.5703 11.3906 14.5625 10.6719C14.5703 9.89062 13.9609 9.38281 13.2031 9.375C12.4766 9.38281 11.7969 9.86719 11.7656 10.7812H9.54688C9.58594 8.58594 11.2188 7.53125 13.2188 7.53125C15.3984 7.53125 16.9375 8.66406 16.9375 10.5938C16.9375 11.8828 16.2734 12.6953 15.25 13.3125C14.3672 13.8359 13.9766 14.3438 13.9688 15.4375V15.6094H11.9062V15.4375ZM11.6719 17.8281C11.6562 17.1094 12.25 16.5234 12.9844 16.5312C13.6797 16.5234 14.2812 17.1094 14.2812 17.8281C14.2812 18.5547 13.6797 19.1406 12.9844 19.1406C12.25 19.1406 11.6562 18.5547 11.6719 17.8281Z" fill="#333D4B"/>
</svg>
