<svg width="5" height="16" viewBox="0 0 5 16" fill="none" xmlns="http://www.w3.org/2000/svg">
<path d="M2.375 4.25C3.40625 4.25 4.25 3.40625 4.25 2.375C4.25 1.34375 3.40625 0.5 2.375 0.5C1.34375 0.5 0.5 1.34375 0.5 2.375C0.5 3.40625 1.34375 4.25 2.375 4.25ZM2.375 6.125C1.34375 6.125 0.5 6.96875 0.5 8C0.5 9.03125 1.34375 9.875 2.375 9.875C3.40625 9.875 4.25 9.03125 4.25 8C4.25 6.96875 3.40625 6.125 2.375 6.125ZM2.375 11.75C1.34375 11.75 0.5 12.5938 0.5 13.625C0.5 14.6562 1.34375 15.5 2.375 15.5C3.40625 15.5 4.25 14.6562 4.25 13.625C4.25 12.5938 3.40625 11.75 2.375 11.75Z" fill="#8B95A1"/>
</svg>
