<svg width="60" height="60" viewBox="0 0 60 60" fill="none" xmlns="http://www.w3.org/2000/svg">
<path d="M44.3999 31.9264V38.3874C44.3999 41.593 43.1265 44.6674 40.8598 46.9341C38.5931 49.2008 35.5187 50.4743 32.3131 50.4743C29.1075 50.4743 26.0331 49.2008 23.7664 46.9341C21.4997 44.6674 20.2262 41.593 20.2262 38.3874V36.9664C17.5405 36.5477 15.0928 35.1833 13.3244 33.119C11.5561 31.0548 10.5835 28.4266 10.582 25.7085V16.579C10.5824 15.696 10.8029 14.827 11.2236 14.0507C11.6443 13.2743 12.252 12.6151 12.9915 12.1327C13.0441 11.2857 13.3778 10.4805 13.9397 9.84466C14.5017 9.2088 15.2598 8.77865 16.0938 8.62238C16.9279 8.46611 17.7903 8.59264 18.5443 8.98193C19.2984 9.37122 19.9009 10.001 20.2565 10.7715C20.6121 11.542 20.7005 12.4091 20.5075 13.2355C20.3145 14.0618 19.8513 14.8002 19.1913 15.3335C18.5312 15.8668 17.7121 16.1646 16.8636 16.1797C16.0152 16.1948 15.1859 15.9264 14.5073 15.4169C14.2325 15.7418 14.0815 16.1535 14.081 16.579V25.7053C14.081 27.7991 14.9127 29.8072 16.3933 31.2877C17.8738 32.7683 19.8819 33.6 21.9757 33.6C24.0695 33.6 26.0776 32.7683 27.5581 31.2877C29.0387 29.8072 29.8705 27.7991 29.8705 25.7053V16.579C29.8706 16.2003 29.7512 15.8312 29.5294 15.5243C28.8254 15.9985 27.9832 16.2244 27.1364 16.1661C26.2895 16.1079 25.4862 15.7688 24.8538 15.2026C24.2213 14.6364 23.7957 13.8755 23.6445 13.0402C23.4932 12.2049 23.6249 11.343 24.0186 10.5909C24.4124 9.83891 25.0457 9.23969 25.8184 8.88815C26.591 8.53661 27.4589 8.45282 28.2845 8.65006C29.1102 8.8473 29.8464 9.3143 30.3768 9.97712C30.9071 10.6399 31.2012 11.4607 31.2126 12.3095C31.8811 12.8028 32.4245 13.446 32.7991 14.1876C33.1737 14.9291 33.3691 15.7482 33.3694 16.579V25.7053C33.368 28.4234 32.3953 31.0516 30.627 33.1158C28.8586 35.1801 26.4109 36.5446 23.7252 36.9632V38.3843C23.7252 40.6615 24.6298 42.8455 26.2401 44.4557C27.8503 46.0659 30.0343 46.9706 32.3115 46.9706C34.5887 46.9706 36.7727 46.0659 38.3829 44.4557C39.9932 42.8455 40.8978 40.6615 40.8978 38.3843V31.9264C39.3108 31.5019 37.9322 30.5148 37.019 29.1491C36.1059 27.7834 35.7204 26.1323 35.9345 24.5035C36.1486 22.8747 36.9476 21.3792 38.1826 20.2959C39.4177 19.2126 41.0045 18.6152 42.6473 18.6152C44.2901 18.6152 45.8769 19.2126 47.112 20.2959C48.347 21.3792 49.146 22.8747 49.3601 24.5035C49.5742 26.1323 49.1887 27.7834 48.2755 29.1491C47.3624 30.5148 45.9838 31.5019 44.3968 31.9264H44.3999ZM45.9157 25.3895C45.9157 24.7431 45.724 24.1112 45.3649 23.5737C45.0058 23.0362 44.4953 22.6173 43.8981 22.3699C43.3008 22.1225 42.6437 22.0578 42.0097 22.1839C41.3756 22.31 40.7933 22.6213 40.3362 23.0784C39.8791 23.5355 39.5678 24.1179 39.4417 24.7519C39.3156 25.3859 39.3803 26.0431 39.6277 26.6403C39.875 27.2375 40.294 27.748 40.8315 28.1071C41.3689 28.4663 42.0009 28.6579 42.6473 28.6579C43.5142 28.6571 44.3453 28.3126 44.9586 27.6999C45.5719 27.0872 45.9172 26.2564 45.9189 25.3895H45.9157Z" fill="#333D4B"/>
</svg>
