<svg width="113" height="36" viewBox="0 0 113 36" fill="none" xmlns="http://www.w3.org/2000/svg">
<g clip-path="url(#clip0_398_3826)">
<path d="M46.4723 29.8673L39.5174 29.8594L39.5196 27.9155L44.8143 19.0785L39.7487 19.0728L39.7536 14.8018L51.3634 14.815L51.3616 16.3756L45.8474 25.5956L47.1891 25.5971C49.051 25.5993 50.2011 25.6006 51.4882 25.4378L51.4834 29.6266C50.2783 29.9264 48.0605 29.8691 46.4723 29.8673ZM53.1057 14.817L57.8427 14.8224L57.8256 29.8802L53.0886 29.8748L53.1057 14.817ZM57.8445 13.2345L53.1075 13.2291L53.1117 9.56048L57.8487 9.56586L57.8445 13.2345ZM68.6662 30.1115C67.1051 30.1098 65.6272 29.5058 64.7521 28.5465L64.7467 33.3103L60.0371 33.3049L60.0581 14.8249L64.7677 14.8303L64.7662 16.1718C65.5612 15.2966 67.0132 14.6412 68.8207 14.5885C72.8186 14.4835 75.7725 17.3342 75.8214 22.4813C75.8975 27.7926 72.7186 30.1161 68.6662 30.1115ZM67.8766 25.9218C69.547 26.0059 71.2183 25.1043 71.2215 22.3391C71.2244 19.8204 69.61 18.7782 68.1038 18.7765C66.2692 18.7744 64.9257 20.3334 64.923 22.77C64.9212 24.3579 66.1791 25.8104 67.8766 25.9218ZM85.1425 25.1201C87.114 25.095 88.1834 23.8094 88.1853 22.112C88.188 19.7302 86.7928 18.6335 85.15 18.5495C83.8084 18.4658 82.2193 19.3401 82.1069 21.8587C81.9948 24.1036 83.4448 25.1456 85.1425 25.1201ZM93.0533 27.3193C93.0501 30.1393 92.6646 32.0279 90.4723 33.5859C88.7733 34.7339 86.3361 34.9775 83.8993 34.8652C82.2291 34.7812 80.0665 34.2859 78.0416 33.1064L80.0173 29.3852C81.9054 30.4551 83.6846 31.0321 85.7932 30.8155C87.628 30.5985 88.259 29.5315 88.2601 28.5459L88.2609 27.8888C87.5481 28.6546 85.9867 29.173 84.3986 29.1712C81.1676 29.1675 77.2819 27.0003 77.4518 22.0724C77.6496 16.6519 80.9107 14.3011 84.6891 14.497C86.2772 14.5536 87.4813 15.1299 88.2745 15.9247L88.2757 14.857L93.0675 14.8625L93.0533 27.3193ZM102.956 25.9617C104.791 25.9638 106.462 24.7885 106.465 22.3792C106.468 20.0795 104.799 18.7908 102.964 18.7887C101.184 18.7867 99.5674 20.0716 99.5648 22.3714C99.562 24.7806 101.176 25.9597 102.956 25.9617ZM103.006 30.2875C98.2141 30.282 94.8224 27.1297 94.8278 22.366C94.8334 17.4106 98.5333 14.458 103.024 14.4631C107.514 14.4682 111.208 17.4292 111.202 22.3846C111.197 27.1483 107.798 30.2929 103.006 30.2875Z" fill="white"/>
<path d="M30.0998 23.5116C29.097 17.47 23.3009 12.5524 17.1741 12.5454C10.5168 12.5379 4.65764 17.9214 4.08532 24.5601C3.85992 27.1266 4.67863 29.5574 6.37084 31.3902C8.04593 33.2231 10.4065 34.2354 12.9736 34.2383L20.983 34.2474C23.8752 34.2507 26.4094 33.1242 28.1402 31.0899C29.8711 29.0555 30.5587 26.3527 30.0998 23.5116Z" fill="white"/>
<path d="M15.0537 10.0448C17.8232 10.0479 20.0708 7.80571 20.0739 5.03662C20.0771 2.26754 17.8346 0.0202035 15.0651 0.0170545C12.2956 0.0139054 10.048 2.25614 10.0448 5.02522C10.0417 7.79431 12.2842 10.0416 15.0537 10.0448Z" fill="white"/>
<path d="M26.4496 12.057C28.756 12.0597 30.6277 10.1924 30.6303 7.88641C30.633 5.5804 28.7655 3.70891 26.4591 3.70629C24.1528 3.70366 22.2811 5.57091 22.2785 7.87692C22.2758 10.1829 24.1433 12.0544 26.4496 12.057Z" fill="white"/>
<path d="M32.619 18.7423C34.4623 18.7444 35.9581 17.252 35.9602 15.409C35.9623 13.5661 34.4699 12.0705 32.6266 12.0684C30.7836 12.0663 29.2876 13.5585 29.2855 15.4014C29.2834 17.2444 30.776 18.7402 32.619 18.7423Z" fill="white"/>
<path d="M4.19818 15.374C6.50448 15.3766 8.37624 13.5093 8.37887 11.2033C8.38149 8.89733 6.51397 7.0258 4.20768 7.02318C1.90138 7.02056 0.0296126 8.88784 0.0269906 11.1938C0.0243684 13.4998 1.89189 15.3714 4.19818 15.374Z" fill="white"/>
<path d="M46.4723 29.8673L39.5174 29.8594L39.5196 27.9155L44.8143 19.0785L39.7487 19.0728L39.7536 14.8018L51.3634 14.815L51.3616 16.3756L45.8474 25.5956L47.1891 25.5971C49.051 25.5993 50.2011 25.6006 51.4882 25.4378L51.4834 29.6266C50.2783 29.9264 48.0605 29.8691 46.4723 29.8673ZM53.1057 14.817L57.8427 14.8224L57.8256 29.8802L53.0886 29.8748L53.1057 14.817ZM57.8445 13.2345L53.1075 13.2291L53.1117 9.56048L57.8487 9.56586L57.8445 13.2345ZM68.6662 30.1115C67.1051 30.1098 65.6272 29.5058 64.7521 28.5465L64.7467 33.3103L60.0371 33.3049L60.0581 14.8249L64.7677 14.8303L64.7662 16.1718C65.5612 15.2966 67.0132 14.6412 68.8207 14.5885C72.8186 14.4835 75.7725 17.3342 75.8214 22.4813C75.8975 27.7926 72.7186 30.1161 68.6662 30.1115ZM67.8766 25.9218C69.547 26.0059 71.2183 25.1043 71.2215 22.3391C71.2244 19.8204 69.61 18.7782 68.1038 18.7765C66.2692 18.7744 64.9257 20.3334 64.923 22.77C64.9212 24.3579 66.1791 25.8104 67.8766 25.9218ZM85.1425 25.1201C87.114 25.095 88.1834 23.8094 88.1853 22.112C88.188 19.7302 86.7928 18.6335 85.15 18.5495C83.8084 18.4658 82.2193 19.3401 82.1069 21.8587C81.9948 24.1036 83.4448 25.1456 85.1425 25.1201ZM93.0533 27.3193C93.0501 30.1393 92.6646 32.0279 90.4723 33.5859C88.7733 34.7339 86.3361 34.9775 83.8993 34.8652C82.2291 34.7812 80.0665 34.2859 78.0416 33.1064L80.0173 29.3852C81.9054 30.4551 83.6846 31.0321 85.7932 30.8155C87.628 30.5985 88.259 29.5315 88.2601 28.5459L88.2609 27.8888C87.5481 28.6546 85.9867 29.173 84.3986 29.1712C81.1676 29.1675 77.2819 27.0003 77.4518 22.0724C77.6496 16.6519 80.9107 14.3011 84.6891 14.497C86.2772 14.5536 87.4813 15.1299 88.2745 15.9247L88.2757 14.857L93.0675 14.8625L93.0533 27.3193ZM102.956 25.9617C104.791 25.9638 106.462 24.7885 106.465 22.3792C106.468 20.0795 104.799 18.7908 102.964 18.7887C101.184 18.7867 99.5674 20.0716 99.5648 22.3714C99.562 24.7806 101.176 25.9597 102.956 25.9617ZM103.006 30.2875C98.2141 30.282 94.8224 27.1297 94.8278 22.366C94.8334 17.4106 98.5333 14.458 103.024 14.4631C107.514 14.4682 111.208 17.4292 111.202 22.3846C111.197 27.1483 107.798 30.2929 103.006 30.2875Z" fill="white"/>
<path d="M96.7373 12.5082C96.0922 13.3839 95.1566 15.5954 96.5729 17.4356C98.2902 17.7618 101.549 17.9588 100.85 16.1371C100.151 14.3155 97.8171 12.9589 96.7373 12.5082Z" fill="#5C82B3" stroke="white" stroke-width="2"/>
<path d="M109.071 12.5222C109.714 13.3994 110.645 15.613 109.224 17.45C107.506 17.7723 104.247 17.9619 104.95 16.1419C105.653 14.3219 107.99 12.9705 109.071 12.5222Z" fill="#5C82B3" stroke="white" stroke-width="2"/>
</g>
<defs>
<clipPath id="clip0_398_3826">
<rect width="112.264" height="34.9067" fill="white" transform="translate(0.0397949) rotate(0.0651496)"/>
</clipPath>
</defs>
</svg>
