<svg
  width="270"
  height="51"
  viewBox="0 0 1017 193"
  fill="none"
  xmlns="http://www.w3.org/2000/svg"
>
  <path
    d="M120.128 1.91653V22.7587C118.69 33.2996 115.093 42.8822 109.338 51.5066C108.859 52.2253 108.379 52.7044 107.9 53.4231C108.619 53.9023 109.338 54.1418 110.058 54.621C119.169 60.3705 128.041 67.7971 136.673 76.9006L108.859 102.774C101.186 93.9097 93.0336 86.7227 84.6414 81.4523C82.9629 80.7336 81.5243 79.7753 80.0856 78.8171C72.4127 83.848 63.7807 87.9206 54.6692 91.2745C42.6803 96.0658 29.9722 99.4197 17.0242 101.576L0 71.151C17.264 67.3179 32.6097 62.5266 46.5168 56.5375C60.1841 50.7879 70.4945 43.8405 77.448 35.4557H10.79V1.91653H120.128ZM147.943 101.097V0H189.664V101.097H147.943ZM148.182 110.44H189.664V192.611H21.58V110.2H63.541V121.46H148.182V110.44ZM63.541 150.926V160.748H148.182V150.926H63.541ZM201.525 154.52C211.116 142.781 219.029 131.761 225.263 121.22C231.497 111.158 236.293 100.378 240.129 88.8788C243.486 77.8588 246.124 65.4014 247.562 51.7462C248.761 38.3305 249.241 22.5192 249.241 4.31219H291.681C291.681 26.3522 290.722 45.5175 289.284 61.8079C288.325 69.9532 287.126 77.8588 285.687 85.2853C296.477 96.3054 306.068 107.086 314.46 117.627C323.092 129.126 330.765 141.104 337.479 153.562L307.267 180.632C303.67 173.925 300.074 167.456 296.237 161.467C292.401 155.718 288.325 150.208 284.009 144.698C279.932 139.667 275.377 134.396 271.3 129.365C268.663 135.115 265.786 140.385 262.668 145.656C254.996 157.874 245.644 170.331 234.135 183.268L201.525 154.52ZM421.641 63.964V105.409C417.804 105.409 412.769 105.888 407.014 106.367C401.739 107.086 396.704 108.044 392.148 109.242V192.85H347.789V0H392.148V68.2762C396.704 66.8388 401.739 65.641 407.254 64.9223C413.249 64.4431 418.044 63.964 421.641 63.964ZM491.521 106.217C496.976 106.217 501.591 104.121 505.368 99.7192C508.935 95.5268 510.823 89.2382 510.823 81.2726C510.823 73.3071 508.725 67.0185 504.948 62.8261C500.962 58.6337 496.556 56.5375 491.521 56.5375C486.485 56.5375 481.87 58.6337 478.093 62.8261C474.107 67.0185 472.219 73.3071 472.219 81.2726C472.219 89.2382 473.897 95.5268 477.674 99.7192C481.031 104.121 485.646 106.217 491.521 106.217ZM491.521 140.805C473.897 140.805 460.47 135.774 451.028 125.502C441.377 115.441 436.552 100.558 436.552 81.2726C436.552 71.8397 437.811 63.4549 440.538 55.9086C443.056 48.5719 446.832 42.2833 451.868 37.2525C456.693 32.2216 462.568 28.4484 469.281 25.7234C475.995 23.2079 483.338 21.7406 491.521 21.7406C499.493 21.7406 506.837 23.2079 513.55 25.7234C520.264 28.4484 525.929 32.2216 530.964 37.2525C535.79 42.2833 539.566 48.5719 542.503 55.9086C545.021 63.4549 546.49 71.8397 546.49 81.2726C546.49 100.558 541.664 115.441 532.013 125.502C522.362 135.774 508.725 140.805 491.521 140.805ZM434.664 151.495H523.621C531.174 151.495 538.517 151.286 545.231 150.447C551.105 150.028 555.302 149.189 557.819 147.932V24.256H596.633V193H557.819V176.021C554.462 178.117 549.847 179.375 543.762 180.213C537.049 181.471 529.076 181.89 519.844 181.89H434.664V151.495ZM758.123 123.137C759.082 108.763 759.802 94.3888 760.281 79.7753C760.521 65.4014 760.761 51.9857 760.761 39.5283H627.445V1.19783H802.722V37.6118C802.482 48.6318 802.242 58.6936 802.002 68.2762C801.762 77.8588 801.523 87.2019 801.283 95.8262C800.803 104.93 800.084 114.033 799.604 123.137H758.123ZM615.695 189.975V151.645H677.558V87.681H720.958V151.645H813.991V189.975H615.695ZM953.459 116.668H835.728V1.91653H953.459V116.668ZM913.896 80.7336V37.8514H875.292V80.7336H913.896ZM972.641 133.438V0H1014.6V133.438H972.641ZM883.444 128.886V156.436H1017V192.371H841.483V128.886H883.444Z"
    fill="white"
  />
</svg>