<svg width="112" height="35" viewBox="0 0 112 35" fill="none" xmlns="http://www.w3.org/2000/svg">
<path d="M46.357 29.8941H39.4185V27.9451L44.6907 19.0785H39.637V14.7961H51.2194V16.3608L45.7287 25.6118H47.0672C48.9248 25.6118 50.0721 25.6118 51.356 25.4471V29.6471C50.1541 29.949 47.9414 29.8941 46.357 29.8941ZM52.9577 14.7961H57.6835V29.8941H52.9577V14.7961ZM57.6835 13.2039H52.9577V9.52551H57.6835V13.2039ZM68.4988 30.1137C66.9415 30.1137 65.4664 29.5098 64.5922 28.549V33.3255H59.8937V14.7961H64.5922V16.1412C65.3844 15.2628 66.8322 14.6039 68.6354 14.549C72.6237 14.4392 75.574 17.2941 75.6286 22.4549C75.7106 27.7804 72.5418 30.1137 68.4988 30.1137ZM67.7064 25.9137C69.373 25.9961 71.0393 25.0902 71.0393 22.3177C71.0393 19.7922 69.4276 18.749 67.9249 18.749C66.0947 18.749 64.7561 20.3137 64.7561 22.7569C64.7561 24.349 66.0127 25.8039 67.7064 25.9137ZM84.9307 25.0902C86.8976 25.0628 87.9629 23.7726 87.9629 22.0706C87.9629 19.6824 86.5698 18.5843 84.9307 18.502C83.5922 18.4196 82.0078 19.2981 81.8986 21.8236C81.7893 24.0745 83.2371 25.1177 84.9307 25.0902ZM92.8254 27.2863C92.8254 30.1137 92.4429 32.0079 90.2576 33.5726C88.5639 34.7255 86.1327 34.9726 83.7015 34.8628C82.0351 34.7804 79.8771 34.2863 77.8556 33.1059L79.8225 29.3726C81.7073 30.4432 83.4829 31.0196 85.5864 30.8C87.4166 30.5804 88.0449 29.5098 88.0449 28.5216V27.8628C87.3347 28.6314 85.7776 29.153 84.1932 29.153C80.9698 29.153 77.0908 26.9843 77.2547 22.0432C77.4459 16.6079 80.6966 14.2471 84.4664 14.4392C86.0507 14.4941 87.2527 15.0706 88.0449 15.8667V14.7961H92.8254V27.2863ZM102.703 25.9137C104.533 25.9137 106.2 24.7334 106.2 22.3177C106.2 20.0118 104.533 18.7216 102.703 18.7216C100.928 18.7216 99.3159 20.0118 99.3159 22.3177C99.3159 24.7334 100.928 25.9137 102.703 25.9137ZM102.758 30.251C97.9774 30.251 94.5901 27.0941 94.5901 22.3177C94.5901 20.041 95.3643 18.1851 96.6343 16.8424C96.7444 16.7259 96.5168 16.9225 96.6343 16.8138C97.1419 16.3439 99.4233 16.7891 100.049 16.4707C100.171 16.4085 98.9293 15.1983 99.0552 15.1421C100.169 14.6453 101.429 14.3843 102.758 14.3843C103.929 14.3843 105.047 14.5871 106.058 14.9753C106.119 14.9988 106.18 15.023 106.241 15.0479C106.489 15.15 105.278 16.3459 105.512 16.4707C106.105 16.7867 108.102 16.3589 108.585 16.8138C108.666 16.8896 108.745 16.7004 108.822 16.7798C110.127 18.1273 110.926 20.0055 110.926 22.3177C110.926 27.0941 107.538 30.251 102.758 30.251Z" fill="#3E5E8E"/>
<path d="M46.357 29.894H39.4185V27.945L44.6907 19.0783H39.637V14.796H51.2194V16.3607L45.7287 25.6117H47.0672C48.9248 25.6117 50.0721 25.6117 51.356 25.447V29.647C50.1541 29.9489 47.9414 29.894 46.357 29.894ZM52.9577 14.796H57.6835V29.894H52.9577V14.796ZM57.6835 13.2038H52.9577V9.52539H57.6835V13.2038ZM68.4988 30.1136C66.9415 30.1136 65.4664 29.5097 64.5922 28.5489V33.3254H59.8937V14.796H64.5922V16.1411C65.3844 15.2626 66.8322 14.6038 68.6354 14.5489C72.6237 14.4391 75.574 17.294 75.6286 22.4548C75.7106 27.7803 72.5418 30.1136 68.4988 30.1136ZM67.7064 25.9136C69.373 25.996 71.0393 25.0901 71.0393 22.3175C71.0393 19.7921 69.4276 18.7489 67.9249 18.7489C66.0947 18.7489 64.7561 20.3136 64.7561 22.7568C64.7561 24.3489 66.0127 25.8038 67.7064 25.9136ZM84.9307 25.0901C86.8976 25.0626 87.9629 23.7724 87.9629 22.0705C87.9629 19.6823 86.5698 18.5842 84.9307 18.5019C83.5922 18.4195 82.0078 19.2979 81.8986 21.8234C81.7893 24.0744 83.2371 25.1175 84.9307 25.0901ZM92.8254 27.2862C92.8254 30.1136 92.4429 32.0077 90.2576 33.5724C88.5639 34.7254 86.1327 34.9724 83.7015 34.8626C82.0351 34.7803 79.8771 34.2862 77.8556 33.1058L79.8225 29.3724C81.7073 30.443 83.4829 31.0195 85.5864 30.7999C87.4166 30.5803 88.0449 29.5097 88.0449 28.5215V27.8626C87.3347 28.6313 85.7776 29.1528 84.1932 29.1528C80.9698 29.1528 77.0908 26.9842 77.2547 22.043C77.4459 16.6077 80.6966 14.247 84.4664 14.4391C86.0507 14.494 87.2527 15.0705 88.0449 15.8666V14.796H92.8254V27.2862ZM102.703 25.9136C104.533 25.9136 106.2 24.7332 106.2 22.3175C106.2 20.0117 104.533 18.7215 102.703 18.7215C100.928 18.7215 99.3159 20.0117 99.3159 22.3175C99.3159 24.7332 100.928 25.9136 102.703 25.9136ZM102.758 30.2509C97.9774 30.2509 94.5901 27.094 94.5901 22.3175C94.5901 20.0409 95.3643 18.185 96.6343 16.8422C96.7444 16.7258 96.5168 16.9224 96.6343 16.8137C97.1419 16.3438 99.4233 16.789 100.049 16.4706C100.171 16.4084 98.9293 15.1982 99.0552 15.142C100.169 14.6452 101.429 14.3842 102.758 14.3842C103.929 14.3842 105.047 14.5869 106.058 14.9752C106.119 14.9987 106.18 15.0229 106.241 15.0477C106.489 15.1499 105.278 16.3458 105.512 16.4706C106.105 16.7866 108.102 16.3588 108.585 16.8137C108.666 16.8895 108.745 16.7003 108.822 16.7797C110.127 18.1272 110.926 20.0054 110.926 22.3175C110.926 27.094 107.538 30.2509 102.758 30.2509Z" fill="#3E5E8E"/>
<path d="M30.0152 23.5397C29.0079 17.4833 23.2201 12.5593 17.1079 12.5593C10.4665 12.5593 4.62742 17.9637 4.06401 24.6206C3.84205 27.1941 4.66157 29.6304 6.35181 31.4662C8.02499 33.302 10.3811 34.3142 12.9421 34.3142H20.9323C23.8177 34.3142 26.3445 33.1819 28.0689 31.1402C29.7933 29.0985 30.4762 26.3878 30.0152 23.5397Z" fill="#3E5E8E"/>
<path d="M14.9895 10.0539C17.7523 10.0539 19.9919 7.80328 19.9919 5.02696C19.9919 2.25065 17.7523 0 14.9895 0C12.2267 0 9.98706 2.25065 9.98706 5.02696C9.98706 7.80328 12.2267 10.0539 14.9895 10.0539Z" fill="#3E5E8E"/>
<path d="M26.3609 12.0586C28.6617 12.0586 30.5268 10.1843 30.5268 7.87232C30.5268 5.56029 28.6617 3.68604 26.3609 3.68604C24.0601 3.68604 22.1951 5.56029 22.1951 7.87232C22.1951 10.1843 24.0601 12.0586 26.3609 12.0586Z" fill="#3E5E8E"/>
<path d="M32.5236 18.7547C34.3624 18.7547 35.8529 17.2567 35.8529 15.4089C35.8529 13.5612 34.3624 12.0634 32.5236 12.0634C30.685 12.0634 29.1943 13.5612 29.1943 15.4089C29.1943 17.2567 30.685 18.7547 32.5236 18.7547Z" fill="#3E5E8E"/>
<path d="M4.16585 15.4096C6.46659 15.4096 8.33171 13.5353 8.33171 11.2233C8.33171 8.91127 6.46659 7.03699 4.16585 7.03699C1.86513 7.03699 0 8.91127 0 11.2233C0 13.5353 1.86513 15.4096 4.16585 15.4096Z" fill="#3E5E8E"/>
<path d="M96.4839 12.4314C95.8413 13.3101 94.9105 15.5284 96.3255 17.3718C98.039 17.6969 101.29 17.8907 100.591 16.0651C99.8918 14.2395 97.5616 12.882 96.4839 12.4314Z" stroke="#3E5E8E" stroke-width="2"/>
<path d="M108.789 12.4314C109.431 13.3101 110.362 15.5284 108.947 17.3718C107.233 17.6969 103.982 17.8908 104.681 16.0652C105.38 14.2396 107.71 12.882 108.789 12.4314Z" stroke="#3E5E8E" stroke-width="2"/>
</svg>
